ISO-10303-21;
HEADER;
/* Generated by software containing ST-Developer
 * from STEP Tools, Inc. (www.steptools.com) 
 */

FILE_DESCRIPTION(
/* description */ (''),
/* implementation_level */ '2;1');

FILE_NAME(
/* name */ 'BOTTOMPART.step',
/* time_stamp */ '2026-04-08T13:15:07+05:30',
/* author */ (''),
/* organization */ (''),
/* preprocessor_version */ 'ST-DEVELOPER v20.1',
/* originating_system */ 'Autodesk Translation Framework v14.24.0.0',
/* authorisation */ '');

FILE_SCHEMA (('AUTOMOTIVE_DESIGN { 1 0 10303 214 3 1 1 }'));
ENDSEC;

DATA;
#10=MECHANICAL_DESIGN_GEOMETRIC_PRESENTATION_REPRESENTATION('',(#13),#1263);
#11=SHAPE_REPRESENTATION_RELATIONSHIP('SRR','None',#1270,#12);
#12=ADVANCED_BREP_SHAPE_REPRESENTATION('',(#14),#1262);
#13=STYLED_ITEM('',(#1279),#14);
#14=MANIFOLD_SOLID_BREP('Body1',#739);
#15=FACE_BOUND('',#108,.T.);
#16=FACE_BOUND('',#109,.T.);
#17=FACE_BOUND('',#110,.T.);
#18=FACE_BOUND('',#111,.T.);
#19=FACE_BOUND('',#114,.T.);
#20=FACE_BOUND('',#144,.T.);
#21=FACE_BOUND('',#147,.T.);
#22=FACE_BOUND('',#150,.T.);
#23=FACE_BOUND('',#153,.T.);
#24=FACE_BOUND('',#155,.T.);
#25=FACE_BOUND('',#156,.T.);
#26=FACE_BOUND('',#157,.T.);
#27=FACE_BOUND('',#158,.T.);
#28=FACE_BOUND('',#163,.T.);
#29=PLANE('',#756);
#30=PLANE('',#757);
#31=PLANE('',#767);
#32=PLANE('',#770);
#33=PLANE('',#775);
#34=PLANE('',#778);
#35=PLANE('',#781);
#36=PLANE('',#784);
#37=PLANE('',#785);
#38=PLANE('',#786);
#39=PLANE('',#787);
#40=PLANE('',#788);
#41=PLANE('',#789);
#42=PLANE('',#790);
#43=PLANE('',#791);
#44=PLANE('',#792);
#45=PLANE('',#796);
#46=PLANE('',#800);
#47=PLANE('',#804);
#48=PLANE('',#808);
#49=PLANE('',#812);
#50=PLANE('',#816);
#51=PLANE('',#820);
#52=PLANE('',#824);
#53=PLANE('',#825);
#54=PLANE('',#826);
#55=PLANE('',#827);
#56=PLANE('',#828);
#57=PLANE('',#829);
#58=PLANE('',#830);
#59=FACE_OUTER_BOUND('',#105,.T.);
#60=FACE_OUTER_BOUND('',#106,.T.);
#61=FACE_OUTER_BOUND('',#107,.T.);
#62=FACE_OUTER_BOUND('',#112,.T.);
#63=FACE_OUTER_BOUND('',#113,.T.);
#64=FACE_OUTER_BOUND('',#115,.T.);
#65=FACE_OUTER_BOUND('',#116,.T.);
#66=FACE_OUTER_BOUND('',#117,.T.);
#67=FACE_OUTER_BOUND('',#118,.T.);
#68=FACE_OUTER_BOUND('',#119,.T.);
#69=FACE_OUTER_BOUND('',#120,.T.);
#70=FACE_OUTER_BOUND('',#121,.T.);
#71=FACE_OUTER_BOUND('',#122,.T.);
#72=FACE_OUTER_BOUND('',#123,.T.);
#73=FACE_OUTER_BOUND('',#124,.T.);
#74=FACE_OUTER_BOUND('',#125,.T.);
#75=FACE_OUTER_BOUND('',#126,.T.);
#76=FACE_OUTER_BOUND('',#127,.T.);
#77=FACE_OUTER_BOUND('',#128,.T.);
#78=FACE_OUTER_BOUND('',#129,.T.);
#79=FACE_OUTER_BOUND('',#130,.T.);
#80=FACE_OUTER_BOUND('',#131,.T.);
#81=FACE_OUTER_BOUND('',#132,.T.);
#82=FACE_OUTER_BOUND('',#133,.T.);
#83=FACE_OUTER_BOUND('',#134,.T.);
#84=FACE_OUTER_BOUND('',#135,.T.);
#85=FACE_OUTER_BOUND('',#136,.T.);
#86=FACE_OUTER_BOUND('',#137,.T.);
#87=FACE_OUTER_BOUND('',#138,.T.);
#88=FACE_OUTER_BOUND('',#139,.T.);
#89=FACE_OUTER_BOUND('',#140,.T.);
#90=FACE_OUTER_BOUND('',#141,.T.);
#91=FACE_OUTER_BOUND('',#142,.T.);
#92=FACE_OUTER_BOUND('',#143,.T.);
#93=FACE_OUTER_BOUND('',#145,.T.);
#94=FACE_OUTER_BOUND('',#146,.T.);
#95=FACE_OUTER_BOUND('',#148,.T.);
#96=FACE_OUTER_BOUND('',#149,.T.);
#97=FACE_OUTER_BOUND('',#151,.T.);
#98=FACE_OUTER_BOUND('',#152,.T.);
#99=FACE_OUTER_BOUND('',#154,.T.);
#100=FACE_OUTER_BOUND('',#159,.T.);
#101=FACE_OUTER_BOUND('',#160,.T.);
#102=FACE_OUTER_BOUND('',#161,.T.);
#103=FACE_OUTER_BOUND('',#162,.T.);
#104=FACE_OUTER_BOUND('',#164,.T.);
#105=EDGE_LOOP('',(#485,#486,#487,#488));
#106=EDGE_LOOP('',(#489,#490,#491,#492));
#107=EDGE_LOOP('',(#493,#494,#495,#496,#497,#498,#499,#500,#501,#502,#503,
#504,#505,#506,#507,#508));
#108=EDGE_LOOP('',(#509));
#109=EDGE_LOOP('',(#510));
#110=EDGE_LOOP('',(#511));
#111=EDGE_LOOP('',(#512));
#112=EDGE_LOOP('',(#513,#514,#515,#516));
#113=EDGE_LOOP('',(#517,#518,#519,#520));
#114=EDGE_LOOP('',(#521,#522,#523,#524));
#115=EDGE_LOOP('',(#525,#526,#527,#528));
#116=EDGE_LOOP('',(#529,#530,#531,#532));
#117=EDGE_LOOP('',(#533,#534,#535,#536));
#118=EDGE_LOOP('',(#537,#538,#539,#540));
#119=EDGE_LOOP('',(#541));
#120=EDGE_LOOP('',(#542,#543,#544,#545));
#121=EDGE_LOOP('',(#546));
#122=EDGE_LOOP('',(#547,#548,#549,#550));
#123=EDGE_LOOP('',(#551));
#124=EDGE_LOOP('',(#552,#553,#554,#555));
#125=EDGE_LOOP('',(#556));
#126=EDGE_LOOP('',(#557,#558,#559,#560));
#127=EDGE_LOOP('',(#561,#562,#563,#564));
#128=EDGE_LOOP('',(#565,#566,#567,#568));
#129=EDGE_LOOP('',(#569,#570,#571,#572,#573,#574,#575,#576));
#130=EDGE_LOOP('',(#577,#578,#579,#580));
#131=EDGE_LOOP('',(#581,#582,#583,#584));
#132=EDGE_LOOP('',(#585,#586,#587,#588));
#133=EDGE_LOOP('',(#589,#590,#591,#592));
#134=EDGE_LOOP('',(#593,#594,#595,#596));
#135=EDGE_LOOP('',(#597));
#136=EDGE_LOOP('',(#598,#599,#600,#601));
#137=EDGE_LOOP('',(#602));
#138=EDGE_LOOP('',(#603,#604,#605,#606));
#139=EDGE_LOOP('',(#607));
#140=EDGE_LOOP('',(#608,#609,#610,#611));
#141=EDGE_LOOP('',(#612));
#142=EDGE_LOOP('',(#613,#614,#615,#616));
#143=EDGE_LOOP('',(#617));
#144=EDGE_LOOP('',(#618));
#145=EDGE_LOOP('',(#619,#620,#621,#622));
#146=EDGE_LOOP('',(#623));
#147=EDGE_LOOP('',(#624));
#148=EDGE_LOOP('',(#625,#626,#627,#628));
#149=EDGE_LOOP('',(#629));
#150=EDGE_LOOP('',(#630));
#151=EDGE_LOOP('',(#631,#632,#633,#634));
#152=EDGE_LOOP('',(#635));
#153=EDGE_LOOP('',(#636));
#154=EDGE_LOOP('',(#637,#638,#639,#640));
#155=EDGE_LOOP('',(#641));
#156=EDGE_LOOP('',(#642));
#157=EDGE_LOOP('',(#643));
#158=EDGE_LOOP('',(#644));
#159=EDGE_LOOP('',(#645,#646,#647,#648,#649,#650,#651,#652));
#160=EDGE_LOOP('',(#653,#654,#655,#656));
#161=EDGE_LOOP('',(#657,#658,#659,#660));
#162=EDGE_LOOP('',(#661,#662,#663,#664));
#163=EDGE_LOOP('',(#665,#666,#667,#668));
#164=EDGE_LOOP('',(#669,#670,#671,#672,#673,#674,#675,#676));
#165=LINE('',#1059,#229);
#166=LINE('',#1062,#230);
#167=LINE('',#1065,#231);
#168=LINE('',#1067,#232);
#169=LINE('',#1068,#233);
#170=LINE('',#1071,#234);
#171=LINE('',#1073,#235);
#172=LINE('',#1075,#236);
#173=LINE('',#1077,#237);
#174=LINE('',#1079,#238);
#175=LINE('',#1081,#239);
#176=LINE('',#1083,#240);
#177=LINE('',#1085,#241);
#178=LINE('',#1087,#242);
#179=LINE('',#1091,#243);
#180=LINE('',#1095,#244);
#181=LINE('',#1107,#245);
#182=LINE('',#1111,#246);
#183=LINE('',#1112,#247);
#184=LINE('',#1115,#248);
#185=LINE('',#1117,#249);
#186=LINE('',#1119,#250);
#187=LINE('',#1120,#251);
#188=LINE('',#1123,#252);
#189=LINE('',#1126,#253);
#190=LINE('',#1129,#254);
#191=LINE('',#1130,#255);
#192=LINE('',#1135,#256);
#193=LINE('',#1140,#257);
#194=LINE('',#1145,#258);
#195=LINE('',#1150,#259);
#196=LINE('',#1155,#260);
#197=LINE('',#1157,#261);
#198=LINE('',#1158,#262);
#199=LINE('',#1161,#263);
#200=LINE('',#1163,#264);
#201=LINE('',#1164,#265);
#202=LINE('',#1166,#266);
#203=LINE('',#1167,#267);
#204=LINE('',#1169,#268);
#205=LINE('',#1173,#269);
#206=LINE('',#1174,#270);
#207=LINE('',#1175,#271);
#208=LINE('',#1178,#272);
#209=LINE('',#1179,#273);
#210=LINE('',#1182,#274);
#211=LINE('',#1183,#275);
#212=LINE('',#1185,#276);
#213=LINE('',#1190,#277);
#214=LINE('',#1197,#278);
#215=LINE('',#1204,#279);
#216=LINE('',#1211,#280);
#217=LINE('',#1218,#281);
#218=LINE('',#1225,#282);
#219=LINE('',#1232,#283);
#220=LINE('',#1239,#284);
#221=LINE('',#1245,#285);
#222=LINE('',#1247,#286);
#223=LINE('',#1249,#287);
#224=LINE('',#1250,#288);
#225=LINE('',#1252,#289);
#226=LINE('',#1253,#290);
#227=LINE('',#1255,#291);
#228=LINE('',#1257,#292);
#229=VECTOR('',#837,10.);
#230=VECTOR('',#840,10.);
#231=VECTOR('',#843,10.);
#232=VECTOR('',#844,10.);
#233=VECTOR('',#845,10.);
#234=VECTOR('',#848,10.);
#235=VECTOR('',#849,10.);
#236=VECTOR('',#850,10.);
#237=VECTOR('',#851,10.);
#238=VECTOR('',#852,10.);
#239=VECTOR('',#853,10.);
#240=VECTOR('',#854,10.);
#241=VECTOR('',#855,10.);
#242=VECTOR('',#856,10.);
#243=VECTOR('',#859,10.);
#244=VECTOR('',#862,10.);
#245=VECTOR('',#875,10.);
#246=VECTOR('',#880,10.);
#247=VECTOR('',#881,10.);
#248=VECTOR('',#882,10.);
#249=VECTOR('',#883,10.);
#250=VECTOR('',#884,10.);
#251=VECTOR('',#885,10.);
#252=VECTOR('',#888,10.);
#253=VECTOR('',#891,10.);
#254=VECTOR('',#894,10.);
#255=VECTOR('',#895,10.);
#256=VECTOR('',#902,2.15);
#257=VECTOR('',#909,2.15);
#258=VECTOR('',#916,2.15);
#259=VECTOR('',#923,2.15);
#260=VECTOR('',#930,10.);
#261=VECTOR('',#931,10.);
#262=VECTOR('',#932,10.);
#263=VECTOR('',#935,10.);
#264=VECTOR('',#936,10.);
#265=VECTOR('',#937,10.);
#266=VECTOR('',#940,10.);
#267=VECTOR('',#941,10.);
#268=VECTOR('',#944,10.);
#269=VECTOR('',#947,10.);
#270=VECTOR('',#948,10.);
#271=VECTOR('',#949,10.);
#272=VECTOR('',#952,10.);
#273=VECTOR('',#953,10.);
#274=VECTOR('',#956,10.);
#275=VECTOR('',#957,10.);
#276=VECTOR('',#960,10.);
#277=VECTOR('',#965,1.075);
#278=VECTOR('',#974,1.075);
#279=VECTOR('',#983,1.075);
#280=VECTOR('',#992,1.075);
#281=VECTOR('',#1001,2.5);
#282=VECTOR('',#1010,2.5);
#283=VECTOR('',#1019,2.5);
#284=VECTOR('',#1028,2.5);
#285=VECTOR('',#1035,10.);
#286=VECTOR('',#1036,10.);
#287=VECTOR('',#1037,10.);
#288=VECTOR('',#1038,10.);
#289=VECTOR('',#1041,10.);
#290=VECTOR('',#1042,10.);
#291=VECTOR('',#1045,10.);
#292=VECTOR('',#1048,10.);
#293=CIRCLE('',#754,6.);
#294=CIRCLE('',#755,6.);
#295=CIRCLE('',#758,6.);
#296=CIRCLE('',#759,6.);
#297=CIRCLE('',#760,6.);
#298=CIRCLE('',#761,2.15);
#299=CIRCLE('',#762,2.15);
#300=CIRCLE('',#763,2.15);
#301=CIRCLE('',#764,2.15);
#302=CIRCLE('',#766,6.);
#303=CIRCLE('',#769,6.);
#304=CIRCLE('',#772,6.);
#305=CIRCLE('',#774,2.15);
#306=CIRCLE('',#777,2.15);
#307=CIRCLE('',#780,2.15);
#308=CIRCLE('',#783,2.15);
#309=CIRCLE('',#794,1.075);
#310=CIRCLE('',#795,1.075);
#311=CIRCLE('',#798,1.075);
#312=CIRCLE('',#799,1.075);
#313=CIRCLE('',#802,1.075);
#314=CIRCLE('',#803,1.075);
#315=CIRCLE('',#806,1.075);
#316=CIRCLE('',#807,1.075);
#317=CIRCLE('',#810,2.5);
#318=CIRCLE('',#811,2.5);
#319=CIRCLE('',#814,2.5);
#320=CIRCLE('',#815,2.5);
#321=CIRCLE('',#818,2.5);
#322=CIRCLE('',#819,2.5);
#323=CIRCLE('',#822,2.5);
#324=CIRCLE('',#823,2.5);
#325=VERTEX_POINT('',#1055);
#326=VERTEX_POINT('',#1056);
#327=VERTEX_POINT('',#1058);
#328=VERTEX_POINT('',#1060);
#329=VERTEX_POINT('',#1064);
#330=VERTEX_POINT('',#1066);
#331=VERTEX_POINT('',#1070);
#332=VERTEX_POINT('',#1072);
#333=VERTEX_POINT('',#1074);
#334=VERTEX_POINT('',#1076);
#335=VERTEX_POINT('',#1078);
#336=VERTEX_POINT('',#1080);
#337=VERTEX_POINT('',#1082);
#338=VERTEX_POINT('',#1084);
#339=VERTEX_POINT('',#1086);
#340=VERTEX_POINT('',#1088);
#341=VERTEX_POINT('',#1090);
#342=VERTEX_POINT('',#1092);
#343=VERTEX_POINT('',#1094);
#344=VERTEX_POINT('',#1097);
#345=VERTEX_POINT('',#1099);
#346=VERTEX_POINT('',#1101);
#347=VERTEX_POINT('',#1103);
#348=VERTEX_POINT('',#1106);
#349=VERTEX_POINT('',#1110);
#350=VERTEX_POINT('',#1113);
#351=VERTEX_POINT('',#1114);
#352=VERTEX_POINT('',#1116);
#353=VERTEX_POINT('',#1118);
#354=VERTEX_POINT('',#1122);
#355=VERTEX_POINT('',#1124);
#356=VERTEX_POINT('',#1128);
#357=VERTEX_POINT('',#1134);
#358=VERTEX_POINT('',#1139);
#359=VERTEX_POINT('',#1144);
#360=VERTEX_POINT('',#1149);
#361=VERTEX_POINT('',#1154);
#362=VERTEX_POINT('',#1156);
#363=VERTEX_POINT('',#1160);
#364=VERTEX_POINT('',#1162);
#365=VERTEX_POINT('',#1171);
#366=VERTEX_POINT('',#1172);
#367=VERTEX_POINT('',#1177);
#368=VERTEX_POINT('',#1181);
#369=VERTEX_POINT('',#1187);
#370=VERTEX_POINT('',#1189);
#371=VERTEX_POINT('',#1194);
#372=VERTEX_POINT('',#1196);
#373=VERTEX_POINT('',#1201);
#374=VERTEX_POINT('',#1203);
#375=VERTEX_POINT('',#1208);
#376=VERTEX_POINT('',#1210);
#377=VERTEX_POINT('',#1215);
#378=VERTEX_POINT('',#1217);
#379=VERTEX_POINT('',#1222);
#380=VERTEX_POINT('',#1224);
#381=VERTEX_POINT('',#1229);
#382=VERTEX_POINT('',#1231);
#383=VERTEX_POINT('',#1236);
#384=VERTEX_POINT('',#1238);
#385=VERTEX_POINT('',#1243);
#386=VERTEX_POINT('',#1244);
#387=VERTEX_POINT('',#1246);
#388=VERTEX_POINT('',#1248);
#389=EDGE_CURVE('',#325,#326,#293,.T.);
#390=EDGE_CURVE('',#326,#327,#165,.T.);
#391=EDGE_CURVE('',#327,#328,#294,.T.);
#392=EDGE_CURVE('',#328,#325,#166,.T.);
#393=EDGE_CURVE('',#329,#326,#167,.T.);
#394=EDGE_CURVE('',#330,#329,#168,.T.);
#395=EDGE_CURVE('',#327,#330,#169,.T.);
#396=EDGE_CURVE('',#325,#331,#170,.T.);
#397=EDGE_CURVE('',#331,#332,#171,.T.);
#398=EDGE_CURVE('',#332,#333,#172,.T.);
#399=EDGE_CURVE('',#333,#334,#173,.T.);
#400=EDGE_CURVE('',#334,#335,#174,.T.);
#401=EDGE_CURVE('',#335,#336,#175,.T.);
#402=EDGE_CURVE('',#336,#337,#176,.T.);
#403=EDGE_CURVE('',#337,#338,#177,.T.);
#404=EDGE_CURVE('',#338,#339,#178,.T.);
#405=EDGE_CURVE('',#340,#339,#295,.T.);
#406=EDGE_CURVE('',#340,#341,#179,.T.);
#407=EDGE_CURVE('',#342,#341,#296,.T.);
#408=EDGE_CURVE('',#342,#343,#180,.T.);
#409=EDGE_CURVE('',#329,#343,#297,.T.);
#410=EDGE_CURVE('',#344,#344,#298,.T.);
#411=EDGE_CURVE('',#345,#345,#299,.T.);
#412=EDGE_CURVE('',#346,#346,#300,.T.);
#413=EDGE_CURVE('',#347,#347,#301,.T.);
#414=EDGE_CURVE('',#343,#348,#181,.T.);
#415=EDGE_CURVE('',#348,#330,#302,.T.);
#416=EDGE_CURVE('',#349,#342,#182,.T.);
#417=EDGE_CURVE('',#348,#349,#183,.T.);
#418=EDGE_CURVE('',#350,#351,#184,.T.);
#419=EDGE_CURVE('',#351,#352,#185,.T.);
#420=EDGE_CURVE('',#352,#353,#186,.T.);
#421=EDGE_CURVE('',#353,#350,#187,.T.);
#422=EDGE_CURVE('',#339,#354,#188,.T.);
#423=EDGE_CURVE('',#354,#355,#303,.T.);
#424=EDGE_CURVE('',#355,#340,#189,.T.);
#425=EDGE_CURVE('',#356,#355,#190,.T.);
#426=EDGE_CURVE('',#341,#356,#191,.T.);
#427=EDGE_CURVE('',#356,#349,#304,.T.);
#428=EDGE_CURVE('',#344,#357,#192,.T.);
#429=EDGE_CURVE('',#357,#357,#305,.T.);
#430=EDGE_CURVE('',#345,#358,#193,.T.);
#431=EDGE_CURVE('',#358,#358,#306,.T.);
#432=EDGE_CURVE('',#346,#359,#194,.T.);
#433=EDGE_CURVE('',#359,#359,#307,.T.);
#434=EDGE_CURVE('',#347,#360,#195,.T.);
#435=EDGE_CURVE('',#360,#360,#308,.T.);
#436=EDGE_CURVE('',#361,#337,#196,.T.);
#437=EDGE_CURVE('',#361,#362,#197,.T.);
#438=EDGE_CURVE('',#338,#362,#198,.T.);
#439=EDGE_CURVE('',#363,#331,#199,.T.);
#440=EDGE_CURVE('',#363,#364,#200,.T.);
#441=EDGE_CURVE('',#332,#364,#201,.T.);
#442=EDGE_CURVE('',#362,#363,#202,.T.);
#443=EDGE_CURVE('',#364,#361,#203,.T.);
#444=EDGE_CURVE('',#354,#328,#204,.T.);
#445=EDGE_CURVE('',#365,#366,#205,.T.);
#446=EDGE_CURVE('',#365,#351,#206,.T.);
#447=EDGE_CURVE('',#366,#350,#207,.T.);
#448=EDGE_CURVE('',#367,#365,#208,.T.);
#449=EDGE_CURVE('',#367,#352,#209,.T.);
#450=EDGE_CURVE('',#368,#367,#210,.T.);
#451=EDGE_CURVE('',#368,#353,#211,.T.);
#452=EDGE_CURVE('',#366,#368,#212,.T.);
#453=EDGE_CURVE('',#369,#369,#309,.T.);
#454=EDGE_CURVE('',#369,#370,#213,.T.);
#455=EDGE_CURVE('',#370,#370,#310,.T.);
#456=EDGE_CURVE('',#371,#371,#311,.T.);
#457=EDGE_CURVE('',#371,#372,#214,.T.);
#458=EDGE_CURVE('',#372,#372,#312,.T.);
#459=EDGE_CURVE('',#373,#373,#313,.T.);
#460=EDGE_CURVE('',#373,#374,#215,.T.);
#461=EDGE_CURVE('',#374,#374,#314,.T.);
#462=EDGE_CURVE('',#375,#375,#315,.T.);
#463=EDGE_CURVE('',#375,#376,#216,.T.);
#464=EDGE_CURVE('',#376,#376,#316,.T.);
#465=EDGE_CURVE('',#377,#377,#317,.T.);
#466=EDGE_CURVE('',#377,#378,#217,.T.);
#467=EDGE_CURVE('',#378,#378,#318,.T.);
#468=EDGE_CURVE('',#379,#379,#319,.T.);
#469=EDGE_CURVE('',#379,#380,#218,.T.);
#470=EDGE_CURVE('',#380,#380,#320,.T.);
#471=EDGE_CURVE('',#381,#381,#321,.T.);
#472=EDGE_CURVE('',#381,#382,#219,.T.);
#473=EDGE_CURVE('',#382,#382,#322,.T.);
#474=EDGE_CURVE('',#383,#383,#323,.T.);
#475=EDGE_CURVE('',#383,#384,#220,.T.);
#476=EDGE_CURVE('',#384,#384,#324,.T.);
#477=EDGE_CURVE('',#385,#386,#221,.T.);
#478=EDGE_CURVE('',#387,#385,#222,.T.);
#479=EDGE_CURVE('',#388,#387,#223,.T.);
#480=EDGE_CURVE('',#386,#388,#224,.T.);
#481=EDGE_CURVE('',#388,#336,#225,.T.);
#482=EDGE_CURVE('',#387,#333,#226,.T.);
#483=EDGE_CURVE('',#385,#334,#227,.T.);
#484=EDGE_CURVE('',#386,#335,#228,.T.);
#485=ORIENTED_EDGE('',*,*,#389,.T.);
#486=ORIENTED_EDGE('',*,*,#390,.T.);
#487=ORIENTED_EDGE('',*,*,#391,.T.);
#488=ORIENTED_EDGE('',*,*,#392,.T.);
#489=ORIENTED_EDGE('',*,*,#390,.F.);
#490=ORIENTED_EDGE('',*,*,#393,.F.);
#491=ORIENTED_EDGE('',*,*,#394,.F.);
#492=ORIENTED_EDGE('',*,*,#395,.F.);
#493=ORIENTED_EDGE('',*,*,#389,.F.);
#494=ORIENTED_EDGE('',*,*,#396,.T.);
#495=ORIENTED_EDGE('',*,*,#397,.T.);
#496=ORIENTED_EDGE('',*,*,#398,.T.);
#497=ORIENTED_EDGE('',*,*,#399,.T.);
#498=ORIENTED_EDGE('',*,*,#400,.T.);
#499=ORIENTED_EDGE('',*,*,#401,.T.);
#500=ORIENTED_EDGE('',*,*,#402,.T.);
#501=ORIENTED_EDGE('',*,*,#403,.T.);
#502=ORIENTED_EDGE('',*,*,#404,.T.);
#503=ORIENTED_EDGE('',*,*,#405,.F.);
#504=ORIENTED_EDGE('',*,*,#406,.T.);
#505=ORIENTED_EDGE('',*,*,#407,.F.);
#506=ORIENTED_EDGE('',*,*,#408,.T.);
#507=ORIENTED_EDGE('',*,*,#409,.F.);
#508=ORIENTED_EDGE('',*,*,#393,.T.);
#509=ORIENTED_EDGE('',*,*,#410,.T.);
#510=ORIENTED_EDGE('',*,*,#411,.T.);
#511=ORIENTED_EDGE('',*,*,#412,.T.);
#512=ORIENTED_EDGE('',*,*,#413,.T.);
#513=ORIENTED_EDGE('',*,*,#409,.T.);
#514=ORIENTED_EDGE('',*,*,#414,.T.);
#515=ORIENTED_EDGE('',*,*,#415,.T.);
#516=ORIENTED_EDGE('',*,*,#394,.T.);
#517=ORIENTED_EDGE('',*,*,#414,.F.);
#518=ORIENTED_EDGE('',*,*,#408,.F.);
#519=ORIENTED_EDGE('',*,*,#416,.F.);
#520=ORIENTED_EDGE('',*,*,#417,.F.);
#521=ORIENTED_EDGE('',*,*,#418,.T.);
#522=ORIENTED_EDGE('',*,*,#419,.T.);
#523=ORIENTED_EDGE('',*,*,#420,.T.);
#524=ORIENTED_EDGE('',*,*,#421,.T.);
#525=ORIENTED_EDGE('',*,*,#405,.T.);
#526=ORIENTED_EDGE('',*,*,#422,.T.);
#527=ORIENTED_EDGE('',*,*,#423,.T.);
#528=ORIENTED_EDGE('',*,*,#424,.T.);
#529=ORIENTED_EDGE('',*,*,#424,.F.);
#530=ORIENTED_EDGE('',*,*,#425,.F.);
#531=ORIENTED_EDGE('',*,*,#426,.F.);
#532=ORIENTED_EDGE('',*,*,#406,.F.);
#533=ORIENTED_EDGE('',*,*,#407,.T.);
#534=ORIENTED_EDGE('',*,*,#426,.T.);
#535=ORIENTED_EDGE('',*,*,#427,.T.);
#536=ORIENTED_EDGE('',*,*,#416,.T.);
#537=ORIENTED_EDGE('',*,*,#410,.F.);
#538=ORIENTED_EDGE('',*,*,#428,.T.);
#539=ORIENTED_EDGE('',*,*,#429,.T.);
#540=ORIENTED_EDGE('',*,*,#428,.F.);
#541=ORIENTED_EDGE('',*,*,#429,.F.);
#542=ORIENTED_EDGE('',*,*,#411,.F.);
#543=ORIENTED_EDGE('',*,*,#430,.T.);
#544=ORIENTED_EDGE('',*,*,#431,.T.);
#545=ORIENTED_EDGE('',*,*,#430,.F.);
#546=ORIENTED_EDGE('',*,*,#431,.F.);
#547=ORIENTED_EDGE('',*,*,#412,.F.);
#548=ORIENTED_EDGE('',*,*,#432,.T.);
#549=ORIENTED_EDGE('',*,*,#433,.T.);
#550=ORIENTED_EDGE('',*,*,#432,.F.);
#551=ORIENTED_EDGE('',*,*,#433,.F.);
#552=ORIENTED_EDGE('',*,*,#413,.F.);
#553=ORIENTED_EDGE('',*,*,#434,.T.);
#554=ORIENTED_EDGE('',*,*,#435,.T.);
#555=ORIENTED_EDGE('',*,*,#434,.F.);
#556=ORIENTED_EDGE('',*,*,#435,.F.);
#557=ORIENTED_EDGE('',*,*,#403,.F.);
#558=ORIENTED_EDGE('',*,*,#436,.F.);
#559=ORIENTED_EDGE('',*,*,#437,.T.);
#560=ORIENTED_EDGE('',*,*,#438,.F.);
#561=ORIENTED_EDGE('',*,*,#397,.F.);
#562=ORIENTED_EDGE('',*,*,#439,.F.);
#563=ORIENTED_EDGE('',*,*,#440,.T.);
#564=ORIENTED_EDGE('',*,*,#441,.F.);
#565=ORIENTED_EDGE('',*,*,#442,.F.);
#566=ORIENTED_EDGE('',*,*,#437,.F.);
#567=ORIENTED_EDGE('',*,*,#443,.F.);
#568=ORIENTED_EDGE('',*,*,#440,.F.);
#569=ORIENTED_EDGE('',*,*,#392,.F.);
#570=ORIENTED_EDGE('',*,*,#444,.F.);
#571=ORIENTED_EDGE('',*,*,#422,.F.);
#572=ORIENTED_EDGE('',*,*,#404,.F.);
#573=ORIENTED_EDGE('',*,*,#438,.T.);
#574=ORIENTED_EDGE('',*,*,#442,.T.);
#575=ORIENTED_EDGE('',*,*,#439,.T.);
#576=ORIENTED_EDGE('',*,*,#396,.F.);
#577=ORIENTED_EDGE('',*,*,#445,.F.);
#578=ORIENTED_EDGE('',*,*,#446,.T.);
#579=ORIENTED_EDGE('',*,*,#418,.F.);
#580=ORIENTED_EDGE('',*,*,#447,.F.);
#581=ORIENTED_EDGE('',*,*,#448,.F.);
#582=ORIENTED_EDGE('',*,*,#449,.T.);
#583=ORIENTED_EDGE('',*,*,#419,.F.);
#584=ORIENTED_EDGE('',*,*,#446,.F.);
#585=ORIENTED_EDGE('',*,*,#450,.F.);
#586=ORIENTED_EDGE('',*,*,#451,.T.);
#587=ORIENTED_EDGE('',*,*,#420,.F.);
#588=ORIENTED_EDGE('',*,*,#449,.F.);
#589=ORIENTED_EDGE('',*,*,#452,.F.);
#590=ORIENTED_EDGE('',*,*,#447,.T.);
#591=ORIENTED_EDGE('',*,*,#421,.F.);
#592=ORIENTED_EDGE('',*,*,#451,.F.);
#593=ORIENTED_EDGE('',*,*,#453,.F.);
#594=ORIENTED_EDGE('',*,*,#454,.T.);
#595=ORIENTED_EDGE('',*,*,#455,.F.);
#596=ORIENTED_EDGE('',*,*,#454,.F.);
#597=ORIENTED_EDGE('',*,*,#453,.T.);
#598=ORIENTED_EDGE('',*,*,#456,.F.);
#599=ORIENTED_EDGE('',*,*,#457,.T.);
#600=ORIENTED_EDGE('',*,*,#458,.F.);
#601=ORIENTED_EDGE('',*,*,#457,.F.);
#602=ORIENTED_EDGE('',*,*,#456,.T.);
#603=ORIENTED_EDGE('',*,*,#459,.F.);
#604=ORIENTED_EDGE('',*,*,#460,.T.);
#605=ORIENTED_EDGE('',*,*,#461,.F.);
#606=ORIENTED_EDGE('',*,*,#460,.F.);
#607=ORIENTED_EDGE('',*,*,#459,.T.);
#608=ORIENTED_EDGE('',*,*,#462,.F.);
#609=ORIENTED_EDGE('',*,*,#463,.T.);
#610=ORIENTED_EDGE('',*,*,#464,.F.);
#611=ORIENTED_EDGE('',*,*,#463,.F.);
#612=ORIENTED_EDGE('',*,*,#462,.T.);
#613=ORIENTED_EDGE('',*,*,#465,.F.);
#614=ORIENTED_EDGE('',*,*,#466,.T.);
#615=ORIENTED_EDGE('',*,*,#467,.F.);
#616=ORIENTED_EDGE('',*,*,#466,.F.);
#617=ORIENTED_EDGE('',*,*,#465,.T.);
#618=ORIENTED_EDGE('',*,*,#455,.T.);
#619=ORIENTED_EDGE('',*,*,#468,.F.);
#620=ORIENTED_EDGE('',*,*,#469,.T.);
#621=ORIENTED_EDGE('',*,*,#470,.F.);
#622=ORIENTED_EDGE('',*,*,#469,.F.);
#623=ORIENTED_EDGE('',*,*,#468,.T.);
#624=ORIENTED_EDGE('',*,*,#458,.T.);
#625=ORIENTED_EDGE('',*,*,#471,.F.);
#626=ORIENTED_EDGE('',*,*,#472,.T.);
#627=ORIENTED_EDGE('',*,*,#473,.F.);
#628=ORIENTED_EDGE('',*,*,#472,.F.);
#629=ORIENTED_EDGE('',*,*,#471,.T.);
#630=ORIENTED_EDGE('',*,*,#461,.T.);
#631=ORIENTED_EDGE('',*,*,#474,.F.);
#632=ORIENTED_EDGE('',*,*,#475,.T.);
#633=ORIENTED_EDGE('',*,*,#476,.F.);
#634=ORIENTED_EDGE('',*,*,#475,.F.);
#635=ORIENTED_EDGE('',*,*,#474,.T.);
#636=ORIENTED_EDGE('',*,*,#464,.T.);
#637=ORIENTED_EDGE('',*,*,#477,.F.);
#638=ORIENTED_EDGE('',*,*,#478,.F.);
#639=ORIENTED_EDGE('',*,*,#479,.F.);
#640=ORIENTED_EDGE('',*,*,#480,.F.);
#641=ORIENTED_EDGE('',*,*,#476,.T.);
#642=ORIENTED_EDGE('',*,*,#473,.T.);
#643=ORIENTED_EDGE('',*,*,#470,.T.);
#644=ORIENTED_EDGE('',*,*,#467,.T.);
#645=ORIENTED_EDGE('',*,*,#436,.T.);
#646=ORIENTED_EDGE('',*,*,#402,.F.);
#647=ORIENTED_EDGE('',*,*,#481,.F.);
#648=ORIENTED_EDGE('',*,*,#479,.T.);
#649=ORIENTED_EDGE('',*,*,#482,.T.);
#650=ORIENTED_EDGE('',*,*,#398,.F.);
#651=ORIENTED_EDGE('',*,*,#441,.T.);
#652=ORIENTED_EDGE('',*,*,#443,.T.);
#653=ORIENTED_EDGE('',*,*,#478,.T.);
#654=ORIENTED_EDGE('',*,*,#483,.T.);
#655=ORIENTED_EDGE('',*,*,#399,.F.);
#656=ORIENTED_EDGE('',*,*,#482,.F.);
#657=ORIENTED_EDGE('',*,*,#480,.T.);
#658=ORIENTED_EDGE('',*,*,#481,.T.);
#659=ORIENTED_EDGE('',*,*,#401,.F.);
#660=ORIENTED_EDGE('',*,*,#484,.F.);
#661=ORIENTED_EDGE('',*,*,#477,.T.);
#662=ORIENTED_EDGE('',*,*,#484,.T.);
#663=ORIENTED_EDGE('',*,*,#400,.F.);
#664=ORIENTED_EDGE('',*,*,#483,.F.);
#665=ORIENTED_EDGE('',*,*,#445,.T.);
#666=ORIENTED_EDGE('',*,*,#452,.T.);
#667=ORIENTED_EDGE('',*,*,#450,.T.);
#668=ORIENTED_EDGE('',*,*,#448,.T.);
#669=ORIENTED_EDGE('',*,*,#391,.F.);
#670=ORIENTED_EDGE('',*,*,#395,.T.);
#671=ORIENTED_EDGE('',*,*,#415,.F.);
#672=ORIENTED_EDGE('',*,*,#417,.T.);
#673=ORIENTED_EDGE('',*,*,#427,.F.);
#674=ORIENTED_EDGE('',*,*,#425,.T.);
#675=ORIENTED_EDGE('',*,*,#423,.F.);
#676=ORIENTED_EDGE('',*,*,#444,.T.);
#677=CYLINDRICAL_SURFACE('',#753,6.);
#678=CYLINDRICAL_SURFACE('',#765,6.);
#679=CYLINDRICAL_SURFACE('',#768,6.);
#680=CYLINDRICAL_SURFACE('',#771,6.);
#681=CYLINDRICAL_SURFACE('',#773,2.15);
#682=CYLINDRICAL_SURFACE('',#776,2.15);
#683=CYLINDRICAL_SURFACE('',#779,2.15);
#684=CYLINDRICAL_SURFACE('',#782,2.15);
#685=CYLINDRICAL_SURFACE('',#793,1.075);
#686=CYLINDRICAL_SURFACE('',#797,1.075);
#687=CYLINDRICAL_SURFACE('',#801,1.075);
#688=CYLINDRICAL_SURFACE('',#805,1.075);
#689=CYLINDRICAL_SURFACE('',#809,2.5);
#690=CYLINDRICAL_SURFACE('',#813,2.5);
#691=CYLINDRICAL_SURFACE('',#817,2.5);
#692=CYLINDRICAL_SURFACE('',#821,2.5);
#693=ADVANCED_FACE('',(#59),#677,.T.);
#694=ADVANCED_FACE('',(#60),#29,.T.);
#695=ADVANCED_FACE('',(#61,#15,#16,#17,#18),#30,.T.);
#696=ADVANCED_FACE('',(#62),#678,.T.);
#697=ADVANCED_FACE('',(#63,#19),#31,.T.);
#698=ADVANCED_FACE('',(#64),#679,.T.);
#699=ADVANCED_FACE('',(#65),#32,.T.);
#700=ADVANCED_FACE('',(#66),#680,.T.);
#701=ADVANCED_FACE('',(#67),#681,.F.);
#702=ADVANCED_FACE('',(#68),#33,.T.);
#703=ADVANCED_FACE('',(#69),#682,.F.);
#704=ADVANCED_FACE('',(#70),#34,.T.);
#705=ADVANCED_FACE('',(#71),#683,.F.);
#706=ADVANCED_FACE('',(#72),#35,.T.);
#707=ADVANCED_FACE('',(#73),#684,.F.);
#708=ADVANCED_FACE('',(#74),#36,.T.);
#709=ADVANCED_FACE('',(#75),#37,.F.);
#710=ADVANCED_FACE('',(#76),#38,.F.);
#711=ADVANCED_FACE('',(#77),#39,.F.);
#712=ADVANCED_FACE('',(#78),#40,.T.);
#713=ADVANCED_FACE('',(#79),#41,.F.);
#714=ADVANCED_FACE('',(#80),#42,.F.);
#715=ADVANCED_FACE('',(#81),#43,.F.);
#716=ADVANCED_FACE('',(#82),#44,.F.);
#717=ADVANCED_FACE('',(#83),#685,.T.);
#718=ADVANCED_FACE('',(#84),#45,.T.);
#719=ADVANCED_FACE('',(#85),#686,.T.);
#720=ADVANCED_FACE('',(#86),#46,.T.);
#721=ADVANCED_FACE('',(#87),#687,.T.);
#722=ADVANCED_FACE('',(#88),#47,.T.);
#723=ADVANCED_FACE('',(#89),#688,.T.);
#724=ADVANCED_FACE('',(#90),#48,.T.);
#725=ADVANCED_FACE('',(#91),#689,.T.);
#726=ADVANCED_FACE('',(#92,#20),#49,.T.);
#727=ADVANCED_FACE('',(#93),#690,.T.);
#728=ADVANCED_FACE('',(#94,#21),#50,.T.);
#729=ADVANCED_FACE('',(#95),#691,.T.);
#730=ADVANCED_FACE('',(#96,#22),#51,.T.);
#731=ADVANCED_FACE('',(#97),#692,.T.);
#732=ADVANCED_FACE('',(#98,#23),#52,.T.);
#733=ADVANCED_FACE('',(#99,#24,#25,#26,#27),#53,.T.);
#734=ADVANCED_FACE('',(#100),#54,.T.);
#735=ADVANCED_FACE('',(#101),#55,.T.);
#736=ADVANCED_FACE('',(#102),#56,.T.);
#737=ADVANCED_FACE('',(#103,#28),#57,.T.);
#738=ADVANCED_FACE('',(#104),#58,.F.);
#739=CLOSED_SHELL('',(#693,#694,#695,#696,#697,#698,#699,#700,#701,#702,
#703,#704,#705,#706,#707,#708,#709,#710,#711,#712,#713,#714,#715,#716,#717,
#718,#719,#720,#721,#722,#723,#724,#725,#726,#727,#728,#729,#730,#731,#732,
#733,#734,#735,#736,#737,#738));
#740=DERIVED_UNIT_ELEMENT(#742,1.);
#741=DERIVED_UNIT_ELEMENT(#1265,-3.);
#742=(
MASS_UNIT()
NAMED_UNIT(*)
SI_UNIT(.KILO.,.GRAM.)
);
#743=DERIVED_UNIT((#740,#741));
#744=MEASURE_REPRESENTATION_ITEM('density measure',
POSITIVE_RATIO_MEASURE(7850.),#743);
#745=PROPERTY_DEFINITION_REPRESENTATION(#750,#747);
#746=PROPERTY_DEFINITION_REPRESENTATION(#751,#748);
#747=REPRESENTATION('material name',(#749),#1262);
#748=REPRESENTATION('density',(#744),#1262);
#749=DESCRIPTIVE_REPRESENTATION_ITEM('Steel','Steel');
#750=PROPERTY_DEFINITION('material property','material name',#1272);
#751=PROPERTY_DEFINITION('material property','density of part',#1272);
#752=AXIS2_PLACEMENT_3D('',#1053,#831,#832);
#753=AXIS2_PLACEMENT_3D('',#1054,#833,#834);
#754=AXIS2_PLACEMENT_3D('',#1057,#835,#836);
#755=AXIS2_PLACEMENT_3D('',#1061,#838,#839);
#756=AXIS2_PLACEMENT_3D('',#1063,#841,#842);
#757=AXIS2_PLACEMENT_3D('',#1069,#846,#847);
#758=AXIS2_PLACEMENT_3D('',#1089,#857,#858);
#759=AXIS2_PLACEMENT_3D('',#1093,#860,#861);
#760=AXIS2_PLACEMENT_3D('',#1096,#863,#864);
#761=AXIS2_PLACEMENT_3D('',#1098,#865,#866);
#762=AXIS2_PLACEMENT_3D('',#1100,#867,#868);
#763=AXIS2_PLACEMENT_3D('',#1102,#869,#870);
#764=AXIS2_PLACEMENT_3D('',#1104,#871,#872);
#765=AXIS2_PLACEMENT_3D('',#1105,#873,#874);
#766=AXIS2_PLACEMENT_3D('',#1108,#876,#877);
#767=AXIS2_PLACEMENT_3D('',#1109,#878,#879);
#768=AXIS2_PLACEMENT_3D('',#1121,#886,#887);
#769=AXIS2_PLACEMENT_3D('',#1125,#889,#890);
#770=AXIS2_PLACEMENT_3D('',#1127,#892,#893);
#771=AXIS2_PLACEMENT_3D('',#1131,#896,#897);
#772=AXIS2_PLACEMENT_3D('',#1132,#898,#899);
#773=AXIS2_PLACEMENT_3D('',#1133,#900,#901);
#774=AXIS2_PLACEMENT_3D('',#1136,#903,#904);
#775=AXIS2_PLACEMENT_3D('',#1137,#905,#906);
#776=AXIS2_PLACEMENT_3D('',#1138,#907,#908);
#777=AXIS2_PLACEMENT_3D('',#1141,#910,#911);
#778=AXIS2_PLACEMENT_3D('',#1142,#912,#913);
#779=AXIS2_PLACEMENT_3D('',#1143,#914,#915);
#780=AXIS2_PLACEMENT_3D('',#1146,#917,#918);
#781=AXIS2_PLACEMENT_3D('',#1147,#919,#920);
#782=AXIS2_PLACEMENT_3D('',#1148,#921,#922);
#783=AXIS2_PLACEMENT_3D('',#1151,#924,#925);
#784=AXIS2_PLACEMENT_3D('',#1152,#926,#927);
#785=AXIS2_PLACEMENT_3D('',#1153,#928,#929);
#786=AXIS2_PLACEMENT_3D('',#1159,#933,#934);
#787=AXIS2_PLACEMENT_3D('',#1165,#938,#939);
#788=AXIS2_PLACEMENT_3D('',#1168,#942,#943);
#789=AXIS2_PLACEMENT_3D('',#1170,#945,#946);
#790=AXIS2_PLACEMENT_3D('',#1176,#950,#951);
#791=AXIS2_PLACEMENT_3D('',#1180,#954,#955);
#792=AXIS2_PLACEMENT_3D('',#1184,#958,#959);
#793=AXIS2_PLACEMENT_3D('',#1186,#961,#962);
#794=AXIS2_PLACEMENT_3D('',#1188,#963,#964);
#795=AXIS2_PLACEMENT_3D('',#1191,#966,#967);
#796=AXIS2_PLACEMENT_3D('',#1192,#968,#969);
#797=AXIS2_PLACEMENT_3D('',#1193,#970,#971);
#798=AXIS2_PLACEMENT_3D('',#1195,#972,#973);
#799=AXIS2_PLACEMENT_3D('',#1198,#975,#976);
#800=AXIS2_PLACEMENT_3D('',#1199,#977,#978);
#801=AXIS2_PLACEMENT_3D('',#1200,#979,#980);
#802=AXIS2_PLACEMENT_3D('',#1202,#981,#982);
#803=AXIS2_PLACEMENT_3D('',#1205,#984,#985);
#804=AXIS2_PLACEMENT_3D('',#1206,#986,#987);
#805=AXIS2_PLACEMENT_3D('',#1207,#988,#989);
#806=AXIS2_PLACEMENT_3D('',#1209,#990,#991);
#807=AXIS2_PLACEMENT_3D('',#1212,#993,#994);
#808=AXIS2_PLACEMENT_3D('',#1213,#995,#996);
#809=AXIS2_PLACEMENT_3D('',#1214,#997,#998);
#810=AXIS2_PLACEMENT_3D('',#1216,#999,#1000);
#811=AXIS2_PLACEMENT_3D('',#1219,#1002,#1003);
#812=AXIS2_PLACEMENT_3D('',#1220,#1004,#1005);
#813=AXIS2_PLACEMENT_3D('',#1221,#1006,#1007);
#814=AXIS2_PLACEMENT_3D('',#1223,#1008,#1009);
#815=AXIS2_PLACEMENT_3D('',#1226,#1011,#1012);
#816=AXIS2_PLACEMENT_3D('',#1227,#1013,#1014);
#817=AXIS2_PLACEMENT_3D('',#1228,#1015,#1016);
#818=AXIS2_PLACEMENT_3D('',#1230,#1017,#1018);
#819=AXIS2_PLACEMENT_3D('',#1233,#1020,#1021);
#820=AXIS2_PLACEMENT_3D('',#1234,#1022,#1023);
#821=AXIS2_PLACEMENT_3D('',#1235,#1024,#1025);
#822=AXIS2_PLACEMENT_3D('',#1237,#1026,#1027);
#823=AXIS2_PLACEMENT_3D('',#1240,#1029,#1030);
#824=AXIS2_PLACEMENT_3D('',#1241,#1031,#1032);
#825=AXIS2_PLACEMENT_3D('',#1242,#1033,#1034);
#826=AXIS2_PLACEMENT_3D('',#1251,#1039,#1040);
#827=AXIS2_PLACEMENT_3D('',#1254,#1043,#1044);
#828=AXIS2_PLACEMENT_3D('',#1256,#1046,#1047);
#829=AXIS2_PLACEMENT_3D('',#1258,#1049,#1050);
#830=AXIS2_PLACEMENT_3D('',#1259,#1051,#1052);
#831=DIRECTION('axis',(0.,0.,1.));
#832=DIRECTION('refdir',(1.,0.,0.));
#833=DIRECTION('center_axis',(0.,0.,1.));
#834=DIRECTION('ref_axis',(0.707106781186547,0.707106781186547,0.));
#835=DIRECTION('center_axis',(0.,0.,-1.));
#836=DIRECTION('ref_axis',(0.707106781186547,0.707106781186547,0.));
#837=DIRECTION('',(0.,0.,-1.));
#838=DIRECTION('center_axis',(0.,0.,1.));
#839=DIRECTION('ref_axis',(0.707106781186547,0.707106781186547,0.));
#840=DIRECTION('',(0.,0.,1.));
#841=DIRECTION('center_axis',(1.,0.,0.));
#842=DIRECTION('ref_axis',(0.,1.,0.));
#843=DIRECTION('',(0.,1.,0.));
#844=DIRECTION('',(0.,0.,1.));
#845=DIRECTION('',(0.,-1.,0.));
#846=DIRECTION('center_axis',(0.,0.,1.));
#847=DIRECTION('ref_axis',(1.,0.,0.));
#848=DIRECTION('',(-1.,0.,0.));
#849=DIRECTION('',(0.,-1.,0.));
#850=DIRECTION('',(1.,0.,0.));
#851=DIRECTION('',(0.,-1.,0.));
#852=DIRECTION('',(-1.,0.,0.));
#853=DIRECTION('',(0.,1.,0.));
#854=DIRECTION('',(1.,0.,0.));
#855=DIRECTION('',(0.,1.,0.));
#856=DIRECTION('',(-1.,0.,0.));
#857=DIRECTION('center_axis',(0.,0.,-1.));
#858=DIRECTION('ref_axis',(-0.707106781186547,0.707106781186548,0.));
#859=DIRECTION('',(0.,-1.,0.));
#860=DIRECTION('center_axis',(0.,0.,-1.));
#861=DIRECTION('ref_axis',(-0.707106781186547,-0.707106781186547,0.));
#862=DIRECTION('',(1.,0.,0.));
#863=DIRECTION('center_axis',(0.,0.,-1.));
#864=DIRECTION('ref_axis',(0.707106781186547,-0.707106781186547,0.));
#865=DIRECTION('center_axis',(0.,0.,-1.));
#866=DIRECTION('ref_axis',(-1.,0.,0.));
#867=DIRECTION('center_axis',(0.,0.,-1.));
#868=DIRECTION('ref_axis',(-1.,0.,0.));
#869=DIRECTION('center_axis',(0.,0.,-1.));
#870=DIRECTION('ref_axis',(-1.,0.,0.));
#871=DIRECTION('center_axis',(0.,0.,-1.));
#872=DIRECTION('ref_axis',(-1.,0.,0.));
#873=DIRECTION('center_axis',(0.,0.,1.));
#874=DIRECTION('ref_axis',(0.707106781186547,-0.707106781186547,0.));
#875=DIRECTION('',(0.,0.,-1.));
#876=DIRECTION('center_axis',(0.,0.,1.));
#877=DIRECTION('ref_axis',(0.707106781186547,-0.707106781186547,0.));
#878=DIRECTION('center_axis',(0.,-1.,0.));
#879=DIRECTION('ref_axis',(1.,0.,0.));
#880=DIRECTION('',(0.,0.,1.));
#881=DIRECTION('',(-1.,0.,0.));
#882=DIRECTION('',(0.,0.,1.));
#883=DIRECTION('',(1.,0.,0.));
#884=DIRECTION('',(0.,0.,-1.));
#885=DIRECTION('',(-1.,0.,0.));
#886=DIRECTION('center_axis',(0.,0.,1.));
#887=DIRECTION('ref_axis',(-0.707106781186547,0.707106781186548,0.));
#888=DIRECTION('',(0.,0.,-1.));
#889=DIRECTION('center_axis',(0.,0.,1.));
#890=DIRECTION('ref_axis',(-0.707106781186547,0.707106781186548,0.));
#891=DIRECTION('',(0.,0.,1.));
#892=DIRECTION('center_axis',(-1.,0.,0.));
#893=DIRECTION('ref_axis',(0.,-1.,0.));
#894=DIRECTION('',(0.,1.,0.));
#895=DIRECTION('',(0.,0.,-1.));
#896=DIRECTION('center_axis',(0.,0.,1.));
#897=DIRECTION('ref_axis',(-0.707106781186547,-0.707106781186547,0.));
#898=DIRECTION('center_axis',(0.,0.,1.));
#899=DIRECTION('ref_axis',(-0.707106781186547,-0.707106781186547,0.));
#900=DIRECTION('center_axis',(0.,0.,-1.));
#901=DIRECTION('ref_axis',(-1.,0.,0.));
#902=DIRECTION('',(0.,0.,-1.));
#903=DIRECTION('center_axis',(0.,0.,-1.));
#904=DIRECTION('ref_axis',(-1.,0.,0.));
#905=DIRECTION('center_axis',(0.,0.,1.));
#906=DIRECTION('ref_axis',(-1.,0.,0.));
#907=DIRECTION('center_axis',(0.,0.,-1.));
#908=DIRECTION('ref_axis',(-1.,0.,0.));
#909=DIRECTION('',(0.,0.,-1.));
#910=DIRECTION('center_axis',(0.,0.,-1.));
#911=DIRECTION('ref_axis',(-1.,0.,0.));
#912=DIRECTION('center_axis',(0.,0.,1.));
#913=DIRECTION('ref_axis',(-1.,0.,0.));
#914=DIRECTION('center_axis',(0.,0.,-1.));
#915=DIRECTION('ref_axis',(-1.,0.,0.));
#916=DIRECTION('',(0.,0.,-1.));
#917=DIRECTION('center_axis',(0.,0.,-1.));
#918=DIRECTION('ref_axis',(-1.,0.,0.));
#919=DIRECTION('center_axis',(0.,0.,1.));
#920=DIRECTION('ref_axis',(-1.,0.,0.));
#921=DIRECTION('center_axis',(0.,0.,-1.));
#922=DIRECTION('ref_axis',(-1.,0.,0.));
#923=DIRECTION('',(0.,0.,-1.));
#924=DIRECTION('center_axis',(0.,0.,-1.));
#925=DIRECTION('ref_axis',(-1.,0.,0.));
#926=DIRECTION('center_axis',(0.,0.,1.));
#927=DIRECTION('ref_axis',(-1.,0.,0.));
#928=DIRECTION('center_axis',(-1.,0.,0.));
#929=DIRECTION('ref_axis',(0.,1.,0.));
#930=DIRECTION('',(0.,0.,1.));
#931=DIRECTION('',(0.,1.,0.));
#932=DIRECTION('',(0.,0.,-1.));
#933=DIRECTION('center_axis',(1.,0.,0.));
#934=DIRECTION('ref_axis',(0.,-1.,0.));
#935=DIRECTION('',(0.,0.,1.));
#936=DIRECTION('',(0.,-1.,0.));
#937=DIRECTION('',(0.,0.,-1.));
#938=DIRECTION('center_axis',(0.,0.,-1.));
#939=DIRECTION('ref_axis',(-1.,0.,0.));
#940=DIRECTION('',(1.,0.,0.));
#941=DIRECTION('',(-1.,0.,0.));
#942=DIRECTION('center_axis',(0.,1.,0.));
#943=DIRECTION('ref_axis',(-1.,0.,0.));
#944=DIRECTION('',(1.,0.,0.));
#945=DIRECTION('center_axis',(-1.,0.,0.));
#946=DIRECTION('ref_axis',(0.,0.,-1.));
#947=DIRECTION('',(0.,0.,-1.));
#948=DIRECTION('',(0.,-1.,0.));
#949=DIRECTION('',(0.,-1.,0.));
#950=DIRECTION('center_axis',(0.,0.,1.));
#951=DIRECTION('ref_axis',(-1.,0.,0.));
#952=DIRECTION('',(-1.,0.,0.));
#953=DIRECTION('',(0.,-1.,0.));
#954=DIRECTION('center_axis',(1.,0.,0.));
#955=DIRECTION('ref_axis',(0.,0.,1.));
#956=DIRECTION('',(0.,0.,1.));
#957=DIRECTION('',(0.,-1.,0.));
#958=DIRECTION('center_axis',(0.,0.,-1.));
#959=DIRECTION('ref_axis',(1.,0.,0.));
#960=DIRECTION('',(1.,0.,0.));
#961=DIRECTION('center_axis',(0.,0.,1.));
#962=DIRECTION('ref_axis',(1.,0.,0.));
#963=DIRECTION('center_axis',(0.,0.,1.));
#964=DIRECTION('ref_axis',(1.,0.,0.));
#965=DIRECTION('',(0.,0.,-1.));
#966=DIRECTION('center_axis',(0.,0.,-1.));
#967=DIRECTION('ref_axis',(1.,0.,0.));
#968=DIRECTION('center_axis',(0.,0.,1.));
#969=DIRECTION('ref_axis',(1.,0.,0.));
#970=DIRECTION('center_axis',(0.,0.,1.));
#971=DIRECTION('ref_axis',(1.,0.,0.));
#972=DIRECTION('center_axis',(0.,0.,1.));
#973=DIRECTION('ref_axis',(1.,0.,0.));
#974=DIRECTION('',(0.,0.,-1.));
#975=DIRECTION('center_axis',(0.,0.,-1.));
#976=DIRECTION('ref_axis',(1.,0.,0.));
#977=DIRECTION('center_axis',(0.,0.,1.));
#978=DIRECTION('ref_axis',(1.,0.,0.));
#979=DIRECTION('center_axis',(0.,0.,1.));
#980=DIRECTION('ref_axis',(1.,0.,0.));
#981=DIRECTION('center_axis',(0.,0.,1.));
#982=DIRECTION('ref_axis',(1.,0.,0.));
#983=DIRECTION('',(0.,0.,-1.));
#984=DIRECTION('center_axis',(0.,0.,-1.));
#985=DIRECTION('ref_axis',(1.,0.,0.));
#986=DIRECTION('center_axis',(0.,0.,1.));
#987=DIRECTION('ref_axis',(1.,0.,0.));
#988=DIRECTION('center_axis',(0.,0.,1.));
#989=DIRECTION('ref_axis',(1.,0.,0.));
#990=DIRECTION('center_axis',(0.,0.,1.));
#991=DIRECTION('ref_axis',(1.,0.,0.));
#992=DIRECTION('',(0.,0.,-1.));
#993=DIRECTION('center_axis',(0.,0.,-1.));
#994=DIRECTION('ref_axis',(1.,0.,0.));
#995=DIRECTION('center_axis',(0.,0.,1.));
#996=DIRECTION('ref_axis',(1.,0.,0.));
#997=DIRECTION('center_axis',(0.,0.,1.));
#998=DIRECTION('ref_axis',(1.,0.,0.));
#999=DIRECTION('center_axis',(0.,0.,1.));
#1000=DIRECTION('ref_axis',(1.,0.,0.));
#1001=DIRECTION('',(0.,0.,-1.));
#1002=DIRECTION('center_axis',(0.,0.,-1.));
#1003=DIRECTION('ref_axis',(1.,0.,0.));
#1004=DIRECTION('center_axis',(0.,0.,1.));
#1005=DIRECTION('ref_axis',(1.,0.,0.));
#1006=DIRECTION('center_axis',(0.,0.,1.));
#1007=DIRECTION('ref_axis',(1.,0.,0.));
#1008=DIRECTION('center_axis',(0.,0.,1.));
#1009=DIRECTION('ref_axis',(1.,0.,0.));
#1010=DIRECTION('',(0.,0.,-1.));
#1011=DIRECTION('center_axis',(0.,0.,-1.));
#1012=DIRECTION('ref_axis',(1.,0.,0.));
#1013=DIRECTION('center_axis',(0.,0.,1.));
#1014=DIRECTION('ref_axis',(1.,0.,0.));
#1015=DIRECTION('center_axis',(0.,0.,1.));
#1016=DIRECTION('ref_axis',(1.,0.,0.));
#1017=DIRECTION('center_axis',(0.,0.,1.));
#1018=DIRECTION('ref_axis',(1.,0.,0.));
#1019=DIRECTION('',(0.,0.,-1.));
#1020=DIRECTION('center_axis',(0.,0.,-1.));
#1021=DIRECTION('ref_axis',(1.,0.,0.));
#1022=DIRECTION('center_axis',(0.,0.,1.));
#1023=DIRECTION('ref_axis',(1.,0.,0.));
#1024=DIRECTION('center_axis',(0.,0.,1.));
#1025=DIRECTION('ref_axis',(1.,0.,0.));
#1026=DIRECTION('center_axis',(0.,0.,1.));
#1027=DIRECTION('ref_axis',(1.,0.,0.));
#1028=DIRECTION('',(0.,0.,-1.));
#1029=DIRECTION('center_axis',(0.,0.,-1.));
#1030=DIRECTION('ref_axis',(1.,0.,0.));
#1031=DIRECTION('center_axis',(0.,0.,1.));
#1032=DIRECTION('ref_axis',(1.,0.,0.));
#1033=DIRECTION('center_axis',(0.,0.,1.));
#1034=DIRECTION('ref_axis',(1.,0.,0.));
#1035=DIRECTION('',(-1.,0.,0.));
#1036=DIRECTION('',(0.,-1.,0.));
#1037=DIRECTION('',(1.,0.,0.));
#1038=DIRECTION('',(0.,1.,0.));
#1039=DIRECTION('center_axis',(0.,-1.,0.));
#1040=DIRECTION('ref_axis',(1.,0.,0.));
#1041=DIRECTION('',(0.,0.,1.));
#1042=DIRECTION('',(0.,0.,1.));
#1043=DIRECTION('center_axis',(-1.,0.,0.));
#1044=DIRECTION('ref_axis',(0.,-1.,0.));
#1045=DIRECTION('',(0.,0.,1.));
#1046=DIRECTION('center_axis',(1.,0.,0.));
#1047=DIRECTION('ref_axis',(0.,1.,0.));
#1048=DIRECTION('',(0.,0.,1.));
#1049=DIRECTION('center_axis',(0.,1.,0.));
#1050=DIRECTION('ref_axis',(-1.,0.,0.));
#1051=DIRECTION('center_axis',(0.,0.,1.));
#1052=DIRECTION('ref_axis',(1.,0.,0.));
#1053=CARTESIAN_POINT('',(0.,0.,0.));
#1054=CARTESIAN_POINT('Origin',(41.6479674345908,34.779873262895,0.));
#1055=CARTESIAN_POINT('',(41.6479674345908,40.779873262895,48.));
#1056=CARTESIAN_POINT('',(47.6479674345908,34.779873262895,48.));
#1057=CARTESIAN_POINT('Origin',(41.6479674345908,34.779873262895,48.));
#1058=CARTESIAN_POINT('',(47.6479674345908,34.779873262895,0.));
#1059=CARTESIAN_POINT('',(47.6479674345908,34.779873262895,0.));
#1060=CARTESIAN_POINT('',(41.6479674345908,40.779873262895,0.));
#1061=CARTESIAN_POINT('Origin',(41.6479674345908,34.779873262895,0.));
#1062=CARTESIAN_POINT('',(41.6479674345908,40.779873262895,0.));
#1063=CARTESIAN_POINT('Origin',(47.6479674345908,-44.220126737105,0.));
#1064=CARTESIAN_POINT('',(47.6479674345908,-38.220126737105,48.));
#1065=CARTESIAN_POINT('',(47.6479674345908,40.779873262895,48.));
#1066=CARTESIAN_POINT('',(47.6479674345908,-38.220126737105,0.));
#1067=CARTESIAN_POINT('',(47.6479674345908,-38.220126737105,0.));
#1068=CARTESIAN_POINT('',(47.6479674345908,40.779873262895,0.));
#1069=CARTESIAN_POINT('Origin',(-3.85203256540921,-1.72012673710504,48.));
#1070=CARTESIAN_POINT('',(18.5679808342384,40.779873262895,48.));
#1071=CARTESIAN_POINT('',(-55.3520325654092,40.779873262895,48.));
#1072=CARTESIAN_POINT('',(18.5679808342384,30.779873262895,48.));
#1073=CARTESIAN_POINT('',(18.5679808342384,19.529873262895,48.));
#1074=CARTESIAN_POINT('',(37.6479674345908,30.779873262895,48.));
#1075=CARTESIAN_POINT('',(-45.3520325654092,30.779873262895,48.));
#1076=CARTESIAN_POINT('',(37.6479674345908,-34.220126737105,48.));
#1077=CARTESIAN_POINT('',(37.6479674345908,30.779873262895,48.));
#1078=CARTESIAN_POINT('',(-45.3520325654092,-34.220126737105,48.));
#1079=CARTESIAN_POINT('',(37.6479674345908,-34.220126737105,48.));
#1080=CARTESIAN_POINT('',(-45.3520325654092,30.779873262895,48.));
#1081=CARTESIAN_POINT('',(-45.3520325654092,-34.220126737105,48.));
#1082=CARTESIAN_POINT('',(8.5679808342384,30.779873262895,48.));
#1083=CARTESIAN_POINT('',(-45.3520325654092,30.779873262895,48.));
#1084=CARTESIAN_POINT('',(8.5679808342384,40.779873262895,48.));
#1085=CARTESIAN_POINT('',(8.5679808342384,14.529873262895,48.));
#1086=CARTESIAN_POINT('',(-49.3520325654092,40.779873262895,48.));
#1087=CARTESIAN_POINT('',(-55.3520325654092,40.779873262895,48.));
#1088=CARTESIAN_POINT('',(-55.3520325654092,34.779873262895,48.));
#1089=CARTESIAN_POINT('Origin',(-49.3520325654092,34.779873262895,48.));
#1090=CARTESIAN_POINT('',(-55.3520325654092,-38.220126737105,48.));
#1091=CARTESIAN_POINT('',(-55.3520325654092,-44.220126737105,48.));
#1092=CARTESIAN_POINT('',(-49.3520325654092,-44.220126737105,48.));
#1093=CARTESIAN_POINT('Origin',(-49.3520325654092,-38.220126737105,48.));
#1094=CARTESIAN_POINT('',(41.6479674345908,-44.220126737105,48.));
#1095=CARTESIAN_POINT('',(47.6479674345908,-44.220126737105,48.));
#1096=CARTESIAN_POINT('Origin',(41.6479674345908,-38.220126737105,48.));
#1097=CARTESIAN_POINT('',(-48.2020325654092,-39.220126737105,48.));
#1098=CARTESIAN_POINT('Origin',(-50.3520325654092,-39.220126737105,48.));
#1099=CARTESIAN_POINT('',(44.7979674345908,35.779873262895,48.));
#1100=CARTESIAN_POINT('Origin',(42.6479674345908,35.779873262895,48.));
#1101=CARTESIAN_POINT('',(44.7979674345908,-39.220126737105,48.));
#1102=CARTESIAN_POINT('Origin',(42.6479674345908,-39.220126737105,48.));
#1103=CARTESIAN_POINT('',(-48.2020325654092,35.779873262895,48.));
#1104=CARTESIAN_POINT('Origin',(-50.3520325654092,35.779873262895,48.));
#1105=CARTESIAN_POINT('Origin',(41.6479674345908,-38.220126737105,0.));
#1106=CARTESIAN_POINT('',(41.6479674345908,-44.220126737105,0.));
#1107=CARTESIAN_POINT('',(41.6479674345908,-44.220126737105,0.));
#1108=CARTESIAN_POINT('Origin',(41.6479674345908,-38.220126737105,0.));
#1109=CARTESIAN_POINT('Origin',(-55.3520325654092,-44.220126737105,0.));
#1110=CARTESIAN_POINT('',(-49.3520325654092,-44.220126737105,0.));
#1111=CARTESIAN_POINT('',(-49.3520325654092,-44.220126737105,0.));
#1112=CARTESIAN_POINT('',(47.6479674345908,-44.220126737105,0.));
#1113=CARTESIAN_POINT('',(-37.1020325654092,-44.220126737105,21.3));
#1114=CARTESIAN_POINT('',(-37.1020325654092,-44.220126737105,32.8));
#1115=CARTESIAN_POINT('',(-37.1020325654092,-44.220126737105,16.4));
#1116=CARTESIAN_POINT('',(-27.6020325654092,-44.220126737105,32.8));
#1117=CARTESIAN_POINT('',(-41.4770325654092,-44.220126737105,32.8));
#1118=CARTESIAN_POINT('',(-27.6020325654092,-44.220126737105,21.3));
#1119=CARTESIAN_POINT('',(-27.6020325654092,-44.220126737105,10.65));
#1120=CARTESIAN_POINT('',(-46.2270325654092,-44.220126737105,21.3));
#1121=CARTESIAN_POINT('Origin',(-49.3520325654092,34.779873262895,0.));
#1122=CARTESIAN_POINT('',(-49.3520325654092,40.779873262895,0.));
#1123=CARTESIAN_POINT('',(-49.3520325654092,40.779873262895,0.));
#1124=CARTESIAN_POINT('',(-55.3520325654092,34.779873262895,0.));
#1125=CARTESIAN_POINT('Origin',(-49.3520325654092,34.779873262895,0.));
#1126=CARTESIAN_POINT('',(-55.3520325654092,34.779873262895,0.));
#1127=CARTESIAN_POINT('Origin',(-55.3520325654092,40.779873262895,0.));
#1128=CARTESIAN_POINT('',(-55.3520325654092,-38.220126737105,0.));
#1129=CARTESIAN_POINT('',(-55.3520325654092,-44.220126737105,0.));
#1130=CARTESIAN_POINT('',(-55.3520325654092,-38.220126737105,0.));
#1131=CARTESIAN_POINT('Origin',(-49.3520325654092,-38.220126737105,0.));
#1132=CARTESIAN_POINT('Origin',(-49.3520325654092,-38.220126737105,0.));
#1133=CARTESIAN_POINT('Origin',(-50.3520325654092,-39.220126737105,48.));
#1134=CARTESIAN_POINT('',(-48.2020325654092,-39.220126737105,18.));
#1135=CARTESIAN_POINT('',(-48.2020325654092,-39.220126737105,48.));
#1136=CARTESIAN_POINT('Origin',(-50.3520325654092,-39.220126737105,18.));
#1137=CARTESIAN_POINT('Origin',(-50.3520325654092,-39.220126737105,18.));
#1138=CARTESIAN_POINT('Origin',(42.6479674345908,35.779873262895,48.));
#1139=CARTESIAN_POINT('',(44.7979674345908,35.779873262895,18.));
#1140=CARTESIAN_POINT('',(44.7979674345908,35.779873262895,48.));
#1141=CARTESIAN_POINT('Origin',(42.6479674345908,35.779873262895,18.));
#1142=CARTESIAN_POINT('Origin',(42.6479674345908,35.779873262895,18.));
#1143=CARTESIAN_POINT('Origin',(42.6479674345908,-39.220126737105,48.));
#1144=CARTESIAN_POINT('',(44.7979674345908,-39.220126737105,18.));
#1145=CARTESIAN_POINT('',(44.7979674345908,-39.220126737105,48.));
#1146=CARTESIAN_POINT('Origin',(42.6479674345908,-39.220126737105,18.));
#1147=CARTESIAN_POINT('Origin',(42.6479674345908,-39.220126737105,18.));
#1148=CARTESIAN_POINT('Origin',(-50.3520325654092,35.779873262895,48.));
#1149=CARTESIAN_POINT('',(-48.2020325654092,35.779873262895,18.));
#1150=CARTESIAN_POINT('',(-48.2020325654092,35.779873262895,48.));
#1151=CARTESIAN_POINT('Origin',(-50.3520325654092,35.779873262895,18.));
#1152=CARTESIAN_POINT('Origin',(-50.3520325654092,35.779873262895,18.));
#1153=CARTESIAN_POINT('Origin',(8.5679808342384,30.779873262895,48.));
#1154=CARTESIAN_POINT('',(8.5679808342384,30.779873262895,44.));
#1155=CARTESIAN_POINT('',(8.5679808342384,30.779873262895,24.));
#1156=CARTESIAN_POINT('',(8.5679808342384,40.779873262895,44.));
#1157=CARTESIAN_POINT('',(8.5679808342384,30.779873262895,44.));
#1158=CARTESIAN_POINT('',(8.5679808342384,40.779873262895,24.));
#1159=CARTESIAN_POINT('Origin',(18.5679808342384,40.779873262895,48.));
#1160=CARTESIAN_POINT('',(18.5679808342384,40.779873262895,44.));
#1161=CARTESIAN_POINT('',(18.5679808342384,40.779873262895,24.));
#1162=CARTESIAN_POINT('',(18.5679808342384,30.779873262895,44.));
#1163=CARTESIAN_POINT('',(18.5679808342384,40.779873262895,44.));
#1164=CARTESIAN_POINT('',(18.5679808342384,30.779873262895,24.));
#1165=CARTESIAN_POINT('Origin',(13.5679808342384,35.779873262895,44.));
#1166=CARTESIAN_POINT('',(30.6079741344146,40.779873262895,44.));
#1167=CARTESIAN_POINT('',(-15.8920258655854,30.779873262895,44.));
#1168=CARTESIAN_POINT('Origin',(47.6479674345908,40.779873262895,0.));
#1169=CARTESIAN_POINT('',(-55.3520325654092,40.779873262895,0.));
#1170=CARTESIAN_POINT('Origin',(-37.1020325654092,-34.220126737105,32.8));
#1171=CARTESIAN_POINT('',(-37.1020325654092,-34.220126737105,32.8));
#1172=CARTESIAN_POINT('',(-37.1020325654092,-34.220126737105,21.3));
#1173=CARTESIAN_POINT('',(-37.1020325654092,-34.220126737105,16.4));
#1174=CARTESIAN_POINT('',(-37.1020325654092,-34.220126737105,32.8));
#1175=CARTESIAN_POINT('',(-37.1020325654092,-34.220126737105,21.3));
#1176=CARTESIAN_POINT('Origin',(-27.6020325654092,-34.220126737105,32.8));
#1177=CARTESIAN_POINT('',(-27.6020325654092,-34.220126737105,32.8));
#1178=CARTESIAN_POINT('',(5.02296743459079,-34.220126737105,32.8));
#1179=CARTESIAN_POINT('',(-27.6020325654092,-34.220126737105,32.8));
#1180=CARTESIAN_POINT('Origin',(-27.6020325654092,-34.220126737105,21.3));
#1181=CARTESIAN_POINT('',(-27.6020325654092,-34.220126737105,21.3));
#1182=CARTESIAN_POINT('',(-27.6020325654092,-34.220126737105,10.65));
#1183=CARTESIAN_POINT('',(-27.6020325654092,-34.220126737105,21.3));
#1184=CARTESIAN_POINT('Origin',(-37.1020325654092,-34.220126737105,21.3));
#1185=CARTESIAN_POINT('',(0.272967434590794,-34.220126737105,21.3));
#1186=CARTESIAN_POINT('Origin',(34.6479674345908,-31.220126737105,0.));
#1187=CARTESIAN_POINT('',(33.5729674345908,-31.220126737105,32.));
#1188=CARTESIAN_POINT('Origin',(34.6479674345908,-31.220126737105,32.));
#1189=CARTESIAN_POINT('',(33.5729674345908,-31.220126737105,21.));
#1190=CARTESIAN_POINT('',(33.5729674345908,-31.220126737105,0.));
#1191=CARTESIAN_POINT('Origin',(34.6479674345908,-31.220126737105,21.));
#1192=CARTESIAN_POINT('Origin',(34.6479674345908,-31.220126737105,32.));
#1193=CARTESIAN_POINT('Origin',(34.6479674345908,26.787873262895,0.));
#1194=CARTESIAN_POINT('',(33.5729674345908,26.787873262895,32.));
#1195=CARTESIAN_POINT('Origin',(34.6479674345908,26.787873262895,32.));
#1196=CARTESIAN_POINT('',(33.5729674345908,26.787873262895,21.));
#1197=CARTESIAN_POINT('',(33.5729674345908,26.787873262895,0.));
#1198=CARTESIAN_POINT('Origin',(34.6479674345908,26.787873262895,21.));
#1199=CARTESIAN_POINT('Origin',(34.6479674345908,26.787873262895,32.));
#1200=CARTESIAN_POINT('Origin',(-41.4450325654092,-31.220126737105,0.));
#1201=CARTESIAN_POINT('',(-42.5200325654092,-31.220126737105,32.));
#1202=CARTESIAN_POINT('Origin',(-41.4450325654092,-31.220126737105,32.));
#1203=CARTESIAN_POINT('',(-42.5200325654092,-31.220126737105,21.));
#1204=CARTESIAN_POINT('',(-42.5200325654092,-31.220126737105,0.));
#1205=CARTESIAN_POINT('Origin',(-41.4450325654092,-31.220126737105,21.));
#1206=CARTESIAN_POINT('Origin',(-41.4450325654092,-31.220126737105,32.));
#1207=CARTESIAN_POINT('Origin',(-41.4450325654092,26.787873262895,0.));
#1208=CARTESIAN_POINT('',(-42.5200325654092,26.787873262895,32.));
#1209=CARTESIAN_POINT('Origin',(-41.4450325654092,26.787873262895,32.));
#1210=CARTESIAN_POINT('',(-42.5200325654092,26.787873262895,21.));
#1211=CARTESIAN_POINT('',(-42.5200325654092,26.787873262895,0.));
#1212=CARTESIAN_POINT('Origin',(-41.4450325654092,26.787873262895,21.));
#1213=CARTESIAN_POINT('Origin',(-41.4450325654092,26.787873262895,32.));
#1214=CARTESIAN_POINT('Origin',(34.6479674345908,-31.220126737105,0.));
#1215=CARTESIAN_POINT('',(32.1479674345908,-31.220126737105,21.));
#1216=CARTESIAN_POINT('Origin',(34.6479674345908,-31.220126737105,21.));
#1217=CARTESIAN_POINT('',(32.1479674345908,-31.220126737105,5.));
#1218=CARTESIAN_POINT('',(32.1479674345908,-31.220126737105,0.));
#1219=CARTESIAN_POINT('Origin',(34.6479674345908,-31.220126737105,5.));
#1220=CARTESIAN_POINT('Origin',(34.6479674345908,-31.220126737105,21.));
#1221=CARTESIAN_POINT('Origin',(34.6479674345908,26.787873262895,0.));
#1222=CARTESIAN_POINT('',(32.1479674345908,26.787873262895,21.));
#1223=CARTESIAN_POINT('Origin',(34.6479674345908,26.787873262895,21.));
#1224=CARTESIAN_POINT('',(32.1479674345908,26.787873262895,5.));
#1225=CARTESIAN_POINT('',(32.1479674345908,26.787873262895,0.));
#1226=CARTESIAN_POINT('Origin',(34.6479674345908,26.787873262895,5.));
#1227=CARTESIAN_POINT('Origin',(34.6479674345908,26.787873262895,21.));
#1228=CARTESIAN_POINT('Origin',(-41.4450325654092,-31.220126737105,0.));
#1229=CARTESIAN_POINT('',(-43.9450325654092,-31.220126737105,21.));
#1230=CARTESIAN_POINT('Origin',(-41.4450325654092,-31.220126737105,21.));
#1231=CARTESIAN_POINT('',(-43.9450325654092,-31.220126737105,5.));
#1232=CARTESIAN_POINT('',(-43.9450325654092,-31.220126737105,0.));
#1233=CARTESIAN_POINT('Origin',(-41.4450325654092,-31.220126737105,5.));
#1234=CARTESIAN_POINT('Origin',(-41.4450325654092,-31.220126737105,21.));
#1235=CARTESIAN_POINT('Origin',(-41.4450325654092,26.787873262895,0.));
#1236=CARTESIAN_POINT('',(-43.9450325654092,26.787873262895,21.));
#1237=CARTESIAN_POINT('Origin',(-41.4450325654092,26.787873262895,21.));
#1238=CARTESIAN_POINT('',(-43.9450325654092,26.787873262895,5.));
#1239=CARTESIAN_POINT('',(-43.9450325654092,26.787873262895,0.));
#1240=CARTESIAN_POINT('Origin',(-41.4450325654092,26.787873262895,5.));
#1241=CARTESIAN_POINT('Origin',(-41.4450325654092,26.787873262895,21.));
#1242=CARTESIAN_POINT('Origin',(-3.85203256540921,-1.72012673710504,5.));
#1243=CARTESIAN_POINT('',(37.6479674345908,-34.220126737105,5.));
#1244=CARTESIAN_POINT('',(-45.3520325654092,-34.220126737105,5.));
#1245=CARTESIAN_POINT('',(16.8979674345908,-34.220126737105,5.));
#1246=CARTESIAN_POINT('',(37.6479674345908,30.779873262895,5.));
#1247=CARTESIAN_POINT('',(37.6479674345908,14.529873262895,5.));
#1248=CARTESIAN_POINT('',(-45.3520325654092,30.779873262895,5.));
#1249=CARTESIAN_POINT('',(-24.6020325654092,30.779873262895,5.));
#1250=CARTESIAN_POINT('',(-45.3520325654092,-17.970126737105,5.));
#1251=CARTESIAN_POINT('Origin',(-45.3520325654092,30.779873262895,0.));
#1252=CARTESIAN_POINT('',(-45.3520325654092,30.779873262895,0.));
#1253=CARTESIAN_POINT('',(37.6479674345908,30.779873262895,0.));
#1254=CARTESIAN_POINT('Origin',(37.6479674345908,30.779873262895,0.));
#1255=CARTESIAN_POINT('',(37.6479674345908,-34.220126737105,0.));
#1256=CARTESIAN_POINT('Origin',(-45.3520325654092,-34.220126737105,0.));
#1257=CARTESIAN_POINT('',(-45.3520325654092,-34.220126737105,0.));
#1258=CARTESIAN_POINT('Origin',(37.6479674345908,-34.220126737105,0.));
#1259=CARTESIAN_POINT('Origin',(-3.85203256540921,-1.72012673710504,0.));
#1260=UNCERTAINTY_MEASURE_WITH_UNIT(LENGTH_MEASURE(0.01),#1264,
'DISTANCE_ACCURACY_VALUE',
'Maximum model space distance between geometric entities at asserted c
onnectivities');
#1261=UNCERTAINTY_MEASURE_WITH_UNIT(LENGTH_MEASURE(0.01),#1264,
'DISTANCE_ACCURACY_VALUE',
'Maximum model space distance between geometric entities at asserted c
onnectivities');
#1262=(
GEOMETRIC_REPRESENTATION_CONTEXT(3)
GLOBAL_UNCERTAINTY_ASSIGNED_CONTEXT((#1260))
GLOBAL_UNIT_ASSIGNED_CONTEXT((#1264,#1266,#1267))
REPRESENTATION_CONTEXT('','3D')
);
#1263=(
GEOMETRIC_REPRESENTATION_CONTEXT(3)
GLOBAL_UNCERTAINTY_ASSIGNED_CONTEXT((#1261))
GLOBAL_UNIT_ASSIGNED_CONTEXT((#1264,#1266,#1267))
REPRESENTATION_CONTEXT('','3D')
);
#1264=(
LENGTH_UNIT()
NAMED_UNIT(*)
SI_UNIT(.MILLI.,.METRE.)
);
#1265=(
LENGTH_UNIT()
NAMED_UNIT(*)
SI_UNIT($,.METRE.)
);
#1266=(
NAMED_UNIT(*)
PLANE_ANGLE_UNIT()
SI_UNIT($,.RADIAN.)
);
#1267=(
NAMED_UNIT(*)
SI_UNIT($,.STERADIAN.)
SOLID_ANGLE_UNIT()
);
#1268=SHAPE_DEFINITION_REPRESENTATION(#1269,#1270);
#1269=PRODUCT_DEFINITION_SHAPE('',$,#1272);
#1270=SHAPE_REPRESENTATION('',(#752),#1262);
#1271=PRODUCT_DEFINITION_CONTEXT('part definition',#1276,'design');
#1272=PRODUCT_DEFINITION('BOTTOMPART','BOTTOMPART',#1273,#1271);
#1273=PRODUCT_DEFINITION_FORMATION('',$,#1278);
#1274=PRODUCT_RELATED_PRODUCT_CATEGORY('BOTTOMPART','BOTTOMPART',(#1278));
#1275=APPLICATION_PROTOCOL_DEFINITION('international standard',
'automotive_design',2009,#1276);
#1276=APPLICATION_CONTEXT(
'Core Data for Automotive Mechanical Design Process');
#1277=PRODUCT_CONTEXT('part definition',#1276,'mechanical');
#1278=PRODUCT('BOTTOMPART','BOTTOMPART',$,(#1277));
#1279=PRESENTATION_STYLE_ASSIGNMENT((#1280));
#1280=SURFACE_STYLE_USAGE(.BOTH.,#1281);
#1281=SURFACE_SIDE_STYLE('',(#1282));
#1282=SURFACE_STYLE_FILL_AREA(#1283);
#1283=FILL_AREA_STYLE('Steel - Satin',(#1284));
#1284=FILL_AREA_STYLE_COLOUR('Steel - Satin',#1285);
#1285=COLOUR_RGB('Steel - Satin',0.627450980392157,0.627450980392157,0.627450980392157);
ENDSEC;
END-ISO-10303-21;
